<?xml version="1.0" encoding="utf-8"?>
<!-- Generator: Adobe Illustrator 28.0.0, SVG Export Plug-In . SVG Version: 6.00 Build 0)  -->
<svg version="1.1" xmlns="http://www.w3.org/2000/svg" xmlns:xlink="http://www.w3.org/1999/xlink" x="0px" y="0px"
	 viewBox="0 0 16 16" style="enable-background:new 0 0 16 16;" xml:space="preserve">
<style type="text/css">
	.st0{fill:#FFFFFF;}
</style>
<g id="Warstwa_1">
	<path class="st0" d="M9.71,5.11l-9.27,9.27c-0.24,0.24-0.24,0.62,0,0.86l0.31,0.31c0.24,0.24,0.62,0.24,0.86,0l9.27-9.27
		c0.24-0.24,0.24-0.62,0-0.86l-0.31-0.31C10.34,4.87,9.95,4.87,9.71,5.11z"/>
	<path class="st0" d="M15.66,5.05l-1.28-1.5c-0.1-0.12-0.14-0.29-0.1-0.44l0.51-1.91c0.1-0.39-0.28-0.73-0.65-0.57l-1.82,0.75
		c-0.15,0.06-0.32,0.05-0.45-0.04L10.2,0.27C9.87,0.05,9.42,0.32,9.46,0.72l0.15,1.97C9.62,2.84,9.56,3,9.43,3.1L7.9,4.34
		C7.59,4.59,7.7,5.09,8.09,5.19l1.92,0.46c0.16,0.04,0.28,0.15,0.34,0.3l0.71,1.84c0.14,0.38,0.66,0.42,0.87,0.08l1.03-1.68
		c0.08-0.14,0.23-0.22,0.39-0.23l1.97-0.1C15.71,5.83,15.92,5.36,15.66,5.05z M13.34,4.98l-0.86,0.03c-0.07,0-0.13,0.04-0.17,0.1
		l-0.46,0.73c-0.09,0.15-0.32,0.12-0.38-0.04l-0.3-0.81c-0.02-0.07-0.08-0.12-0.15-0.13l-0.84-0.22c-0.17-0.04-0.22-0.26-0.08-0.37
		l0.68-0.53c0.06-0.04,0.09-0.11,0.08-0.18l-0.05-0.86c-0.01-0.18,0.18-0.29,0.33-0.19l0.72,0.48c0.06,0.04,0.13,0.05,0.2,0.02
		l0.8-0.32c0.16-0.06,0.33,0.09,0.28,0.26L12.9,3.77c-0.02,0.07,0,0.14,0.04,0.19l0.55,0.67C13.61,4.76,13.51,4.97,13.34,4.98z"/>
</g>
<g id="Warstwa_2">
	<path class="st0" d="M7.37,3.91l-0.4-0.23c-0.05-0.03-0.1-0.03-0.15-0.01l-0.42,0.2C6.27,3.93,6.13,3.83,6.16,3.69l0.1-0.46
		c0.01-0.05,0-0.11-0.04-0.15L5.89,2.75c-0.09-0.1-0.03-0.26,0.1-0.28l0.46-0.05c0.05-0.01,0.1-0.04,0.13-0.09L6.8,1.93
		c0.06-0.12,0.24-0.11,0.3,0.01l0.19,0.42c0.02,0.05,0.07,0.08,0.12,0.09l0.46,0.08C8,2.57,8.05,2.74,7.95,2.83L7.6,3.14
		C7.56,3.18,7.54,3.23,7.55,3.28l0.06,0.46C7.63,3.88,7.48,3.98,7.37,3.91z"/>
	<path class="st0" d="M5.16,6.65L4.94,6.44C4.92,6.42,4.88,6.41,4.85,6.42L4.56,6.48C4.47,6.5,4.4,6.41,4.44,6.33l0.13-0.27
		c0.02-0.03,0.01-0.07,0-0.1L4.42,5.7C4.38,5.62,4.44,5.53,4.53,5.54l0.3,0.04c0.03,0,0.07-0.01,0.09-0.03l0.2-0.22
		C5.17,5.27,5.28,5.3,5.3,5.38l0.05,0.29c0.01,0.03,0.03,0.06,0.06,0.08l0.27,0.12c0.08,0.04,0.08,0.15,0.01,0.19L5.43,6.21
		C5.4,6.22,5.37,6.26,5.37,6.29l-0.03,0.3C5.33,6.67,5.22,6.71,5.16,6.65z"/>
	<path class="st0" d="M14.21,10.34l-0.59-0.07c-0.07-0.01-0.14,0.02-0.18,0.07l-0.39,0.44c-0.12,0.13-0.33,0.07-0.36-0.1l-0.11-0.58
		c-0.01-0.07-0.06-0.13-0.12-0.15L11.91,9.7c-0.16-0.07-0.17-0.29-0.02-0.38l0.52-0.29c0.06-0.03,0.1-0.09,0.11-0.16l0.06-0.59
		c0.02-0.17,0.23-0.25,0.35-0.13l0.43,0.41c0.05,0.05,0.12,0.07,0.19,0.05l0.58-0.13c0.17-0.04,0.31,0.14,0.24,0.29l-0.25,0.54
		c-0.03,0.06-0.03,0.14,0.01,0.2l0.3,0.51C14.51,10.18,14.39,10.36,14.21,10.34z"/>
	<path class="st0" d="M10.03,10.06L9.75,9.89C9.72,9.87,9.68,9.86,9.65,9.88L9.35,10c-0.09,0.04-0.18-0.04-0.16-0.14l0.08-0.31
		c0.01-0.04,0-0.08-0.02-0.1L9.04,9.2C8.97,9.13,9.02,9.02,9.12,9.01L9.44,9c0.04,0,0.07-0.02,0.09-0.06L9.7,8.66
		c0.05-0.08,0.17-0.07,0.21,0.02l0.12,0.3c0.01,0.04,0.04,0.06,0.08,0.07l0.32,0.07c0.09,0.02,0.12,0.14,0.05,0.2l-0.25,0.21
		c-0.03,0.02-0.04,0.06-0.04,0.1l0.03,0.32C10.21,10.05,10.11,10.12,10.03,10.06z"/>
</g>
</svg>
